<svg xmlns="http://www.w3.org/2000/svg" width="512" height="512"><path xmlns="http://www.w3.org/2000/svg" d="M512 256c0 68.379-26.629 132.668-74.98 181.02C388.668 485.37 324.379 512 256 512s-132.668-26.629-181.02-74.98C26.63 388.668 0 324.379 0 256h40c0 119.102 96.898 216 216 216s216-96.898 216-216S375.102 40 256 40c-77.902 0-148.23 41.145-186.57 107H130v40H0V57h40v61.492c18.473-29.012 42.676-54.094 71.48-73.828C154.137 15.445 204.11 0 256 0c68.379 0 132.668 26.629 181.02 74.98C485.37 123.332 512 187.621 512 256zm-150.027.566L192 354.786V158.343zM232 285.476l50.027-28.91L232 227.656zm0 0" fill="#fff" data-original="#000000"/></svg>
