<svg width="30" height="40" viewBox="0 0 30 40" fill="none" xmlns="http://www.w3.org/2000/svg">
<path d="M29.6512 19.508C29.6512 19.8204 29.4517 20.1722 29.1531 20.4069L5.93029 38.6179C5.63098 38.8526 5.18308 39.0085 4.78401 39.0085C4.38494 39.0085 3.93703 38.8521 3.63773 38.6179L1.14633 36.6642C0.847031 36.4295 0.648193 36.1171 0.648193 35.7653C0.648193 35.4529 0.847728 35.1011 1.14633 34.8664L20.7308 19.5085L1.14633 4.15069C0.847031 3.91599 0.648193 3.56474 0.648193 3.2518C0.648193 2.93885 0.847728 2.58761 1.14633 2.3529L3.63773 0.39918C3.93703 0.164471 4.38494 0.00854492 4.78401 0.00854492C5.18308 0.00854492 5.63098 0.165018 5.93029 0.39918L29.1531 18.6102C29.4524 18.8449 29.6512 19.1961 29.6512 19.5091V19.508Z" fill="#666666"/>
</svg>
