<svg height="512" viewBox="0 0 64 64" width="512" xmlns="http://www.w3.org/2000/svg"><g id="flat"><path d="m47 44s2-5-1-8c1.118-1.118 6 2 6 2a27.96 27.96 0 0 0 -5-8c.844-1.265 6 1 6 1l-5-6h5l-9-14a35.412 35.412 0 0 0 -12-2 35.412 35.412 0 0 0 -12 2l-9 14h5l-5 6s5.156-2.265 6-1a27.96 27.96 0 0 0 -5 8s4.882-3.118 6-2c-2 3-1 8-1 8z" fill="#5a6470"/><path d="m50 8c-5-2-6 3-6 3l7.185 11.177c.829.772 4.321 3.823 7.815 3.823 3 0 1-5 2-11 .986-5.918-6-5-11-7z" fill="#394d5c"/><path d="m24 36-7 8s1 5 4 7l2-5a29.142 29.142 0 0 0 9 10 29.142 29.142 0 0 0 9-10l2 5c3-2 4-7 4-7l-7-8z" fill="#e8e7d6"/><path d="m32 33-4 7v3a4 4 0 0 0 8 0v-3z" fill="#f98c96"/><path d="m32 44a1 1 0 0 1 -1-1v-8.2h2v8.2a1 1 0 0 1 -1 1z" fill="#db527d"/><path d="m35 21-.671-4.028a2.361 2.361 0 0 0 -2.329-1.972 2.361 2.361 0 0 0 -2.328 1.972l-.672 4.028-8 12 3 3a4 4 0 0 0 8 0 4 4 0 0 0 8 0l3-3z" fill="#f4f4e6"/><g fill="#143441"><path d="m36 30c0 1.657-2.343 4-4 4s-4-2.343-4-4 2.343-2 4-2 4 .343 4 2z"/><circle cx="23" cy="23" r="2"/><circle cx="41" cy="23" r="2"/></g><path d="m58 19h-2a5.452 5.452 0 0 1 .568-2.233c.4-.934.537-1.248-.275-2.06a6.846 6.846 0 0 0 -4.293-1.707v-2a8.794 8.794 0 0 1 5.707 2.293 3.306 3.306 0 0 1 .7 4.265 3.678 3.678 0 0 0 -.407 1.442z" fill="#5a6470"/><path d="m27 17c0 1.1-1.343 1-3 1a3.428 3.428 0 0 1 -3-3c0-1.105 1.343-1 3-1a3.427 3.427 0 0 1 3 3z" fill="#f4f4e6"/><path d="m37 17c0 1.1 1.343 1 3 1a3.428 3.428 0 0 0 3-3c0-1.105-1.343-1-3-1a3.427 3.427 0 0 0 -3 3z" fill="#f4f4e6"/><path d="m20 11s-1-5-6-3-11.986 1.082-11 7c1 6-1 11 2 11 3.494 0 6.986-3.051 7.815-3.823z" fill="#394d5c"/><path d="m8 19h-2a3.678 3.678 0 0 0 -.4-1.442 3.306 3.306 0 0 1 .7-4.265 8.794 8.794 0 0 1 5.7-2.293v2a6.846 6.846 0 0 0 -4.3 1.707c-.812.812-.676 1.126-.275 2.06a5.452 5.452 0 0 1 .575 2.233z" fill="#5a6470"/></g></svg>