<svg height="512" viewBox="0 0 64 64" width="512" xmlns="http://www.w3.org/2000/svg"><g id="flat"><path d="m20 17s-1.509-3-7-3-2.509 6.881-8 11 5 5.509 5 11a4 4 0 1 0 8 0z" fill="#995f5b"/><path d="m44 17s1.509-3 7-3 2.509 6.881 8 11-5 5.509-5 11a4 4 0 1 1 -8 0z" fill="#995f5b"/><path d="m32 47-14-11 2-19s3.763-3 12-3 12 3 12 3l2 19z" fill="#66342e"/><g fill="#d3843d"><path d="m45.579 32h-9.579v8c0-1.657-1.791-3-4-3s-4 1.343-4 3v-8h-9.579l-.421 4 4 11c.834 2.085 2.755 3 5 3h10c2.245 0 4.166-.915 5-3l4-11z"/><path d="m28 23c0 1.1-1.343 1-3 1a3.428 3.428 0 0 1 -3-3c0-1.105 1.343-1 3-1a3.427 3.427 0 0 1 3 3z"/><path d="m36 23c0 1.105 1.343 1 3 1a3.427 3.427 0 0 0 3-3c0-1.1-1.343-1-3-1a3.428 3.428 0 0 0 -3 3z"/></g><circle cx="39" cy="27" fill="#301a12" r="2"/><circle cx="26" cy="27" fill="#301a12" r="2"/><path d="m37.553 45.105c-.031.015-3 1.462-4.553-.448v-3.657h-2v3.658c-1.535 1.893-4.429.508-4.556.446l-.891 1.796a7.531 7.531 0 0 0 3.212.756 4.789 4.789 0 0 0 3.235-1.148 4.789 4.789 0 0 0 3.235 1.143 7.531 7.531 0 0 0 3.212-.756z" fill="#143441"/><ellipse cx="32" cy="40" fill="#301a12" rx="4" ry="3"/></g></svg>