<svg height="512" viewBox="0 0 64 64" width="512" xmlns="http://www.w3.org/2000/svg"><g id="flat"><path d="m32 45-5.2 5.981a5.991 5.991 0 0 0 10.4 0z" fill="#e8e7d6"/><path d="m59.09 20.46a14.136 14.136 0 0 1 .91 1.54c3.14 6.28-3.43 10.58-5 20s-7 5.28-7-1v-28.99a33.531 33.531 0 0 1 7.11 4.29z" fill="#e8e7d6"/><path d="m6.32 34.06c-1.94-4.06-3.94-7.14-2.85-10.74l8.38-9.1a31.616 31.616 0 0 1 4.15-2.21v28.99c0 6.25-5.37 10.37-6.97 1.15l.316-.561-.585-5.51z" fill="#e8e7d6"/><path d="m29.76 9.09c.76-.06 1.51-.09 2.24-.09 7 0 16 3 16 3v22s-4 9-6 13c-.99 1.98-2.24 4-5 4s-5-1.79-5-4c0 2.21-2.24 4-5 4s-4.01-2.02-5-4c-2-4-6-13-6-13v-22z" fill="#f4f4e6"/><path d="m29 19c-3 4 2 5-1 11s-12 1-12 1v-19a67.347 67.347 0 0 1 13.76-2.91 9.83 9.83 0 0 1 -.76 9.91z" fill="#5a6470"/><g fill="#394d5c"><path d="m59.09 20.46a2.992 2.992 0 1 1 -3.98-4.16 20.163 20.163 0 0 1 3.98 4.16z"/><path d="m52 29c-.68-2.041-2.747-.843-4 .132v11.54c2.62 1.021 4.888-3.9 4-5.672-1-2 1-3 0-6z"/><path d="m12 19c-1 2-3 1-3 4 0 1.91-3.37 1.49-5.53.32a8.874 8.874 0 0 1 .53-1.32c1.71-3.42 5.11-6.07 7.85-7.78.34 1.65.6 3.88.15 4.78z"/><path d="m16 34.46v3.07a11.042 11.042 0 0 1 -6.97 4.62l-.03-.15a28.781 28.781 0 0 0 -2.68-7.94c1.37-1.65 3.48-3.45 4.68-1.06 1.37 2.74 3.68 1.72 5 1.46z"/></g><path d="m36 41a4.406 4.406 0 0 1 -4 4 4.406 4.406 0 0 1 -4-4c0-1.657 1.791-2 4-2s4 .343 4 2z" fill="#143441"/><path d="m27.512 37.859-1.027-1.716c.225-.135 5.577-3.273 11.03 0l-1.03 1.714a9.18 9.18 0 0 0 -8.973.002z" fill="#394d5c"/><circle cx="24" cy="27" fill="#143441" r="2"/><circle cx="40" cy="27" fill="#143441" r="2"/><path d="m43.445 24.832a6.318 6.318 0 0 0 -5.134-.882l-.627-1.9a8.321 8.321 0 0 1 6.871 1.116z" fill="#143441"/><path d="m20.555 24.832-1.11-1.664a8.33 8.33 0 0 1 6.871-1.116l-.627 1.9a6.318 6.318 0 0 0 -5.134.88z" fill="#143441"/></g></svg>