<svg height="512" viewBox="0 0 64 64" width="512" xmlns="http://www.w3.org/2000/svg"><g id="flat"><path d="m28 20a47.357 47.357 0 0 0 -5-6c-2.858-2.858-1.142-11-4-11s-2.571 4.854-4 12-1.288 9.142 3 12z" fill="#394d5c"/><path d="m36 20a47.357 47.357 0 0 1 5-6c2.858-2.858 1.142-11 4-11s2.571 4.854 4 12 1.288 9.142-3 12z" fill="#394d5c"/><path d="m37.39 18.5h9.22v1.999h-9.22z" fill="#143441" transform="matrix(.651 -.759 .759 .651 -.146 38.683)"/><path d="m21 14.89h1.999v9.22h-1.999z" fill="#143441" transform="matrix(.759 -.651 .651 .759 -7.394 19.012)"/><path d="m42 50 4-8v-15l-10-7h-8l-10 7v15l4 8 6.617 8.114a3.977 3.977 0 0 0 6.766 0z" fill="#5a6470"/><g fill="#143441"><circle cx="25" cy="33" r="2"/><circle cx="39" cy="33" r="2"/><path d="m27.857 44.515-1.714-1.03 2-3.337a6.013 6.013 0 0 0 .857-3.087v-6.061h2v6.061a8 8 0 0 1 -1.14 4.116z"/><path d="m36.143 44.515-2-3.338a8 8 0 0 1 -1.143-4.116v-6.061h2v6.061a6.013 6.013 0 0 0 .854 3.087l2 3.337z"/></g><path d="m32 39c-3.045 0-5.74 2.228-7 5l-3 6v7.031c0 2.192.808 3.969 3 3.969 2.312 0 3.566-2.264 4-4a24.886 24.886 0 0 1 3-7 24.886 24.886 0 0 1 3 7c.434 1.736 1.687 4 4 4 2.192 0 3-1.777 3-3.969v-7.031l-3-6c-1.26-2.772-3.955-5-7-5z" fill="#394d5c"/><path d="m36 46c0 1.449-1.827 4-4 4s-4-2.551-4-4 1.827-2 4-2 4 .551 4 2z" fill="#143441"/></g></svg>