<svg height="512" viewBox="0 0 64 64" width="512" xmlns="http://www.w3.org/2000/svg"><g id="flat"><path d="m32 39-5 9v1a5 5 0 0 0 10 0v-1z" fill="#f98c96"/><path d="m32 51a1 1 0 0 1 -1-1v-11h2v11a1 1 0 0 1 -1 1z" fill="#db527d"/><path d="m32 9a29.145 29.145 0 0 0 -15 4v22l5 10c.605 1.967 2.125 3 5 3a3.777 3.777 0 0 0 4-3l1-4 1 4a3.777 3.777 0 0 0 4 3c2.875 0 4.4-1.033 5-3l5-10v-22a29.145 29.145 0 0 0 -15-4z" fill="#ceac9a"/><path d="m36 36c0 1.657-2.343 5-4 5s-4-3.343-4-5 2.343-2 4-2 4 .343 4 2z" fill="#143441"/><path d="m27.512 32.192-1.027-1.716c.225-.136 5.577-3.272 11.03 0l-1.03 1.715a9.187 9.187 0 0 0 -8.973.001z" fill="#995f5b"/><path d="m25 28a2 2 0 1 1 2-2 2 2 0 0 1 -2 2z" fill="#143441"/><path d="m39 28a2 2 0 1 1 2-2 2 2 0 0 1 -2 2z" fill="#143441"/><g fill="#995f5b"><path d="m17 13-10 8c-7 6-2.985 7.786-1 10 1.083 1.208 4 4.37 4 8 0 6.39 7 9.435 7-3.346z"/><path d="m47 13 10 8c7 6 2.985 7.786 1 10-1.083 1.208-4 4.37-4 8 0 6.39-7 9.435-7-3.346z"/></g></g></svg>