<svg height="512" viewBox="0 0 64 64" width="512" xmlns="http://www.w3.org/2000/svg"><g id="flat"><path d="m53 31v-8l-12-12h-18l-12 12v8l-2 7 3 7 8 9 5 1h.08a6.991 6.991 0 0 0 13.84 0h1.08l4-1 8-9 3-7z" fill="#e8e7d6"/><path d="m32 48a12.312 12.312 0 0 1 -7 2.212v3.788a7 7 0 0 0 14 0v-3.788a12.312 12.312 0 0 1 -7-2.212z" fill="#f98c96"/><path d="m31 48h2v6h-2z" fill="#db527d"/><path d="m54.574 36.508-1.574-5.508v-8l-12-12h-7v18c4.36 7.994 15.052 8.065 20.574 7.508z" fill="#5a6470"/><path d="m9.426 36.508c5.522.557 16.214.486 20.574-7.508v-18h-7l-12 12v8z" fill="#5a6470"/><path d="m23 11s-.208-5.75-2-8c-.535-.672-6.462 1.807-10 9s0 11 0 11z" fill="#394d5c"/><path d="m38 39c0 2.979-3.069 7-6 7s-6-4.021-6-7 3.069-3 6-3 6 .021 6 3z" fill="#394d5c"/><path d="m21 31a2 2 0 1 1 2-2 2 2 0 0 1 -2 2z" fill="#143441"/><path d="m41 11s.208-5.75 2-8c.535-.672 6.462 1.807 10 9s0 11 0 11z" fill="#394d5c"/><g fill="#143441"><path d="m43 31a2 2 0 1 1 2-2 2 2 0 0 1 -2 2z"/><path d="m38.629 51.208a13.142 13.142 0 0 1 -6.629-2.039c-8.313 4.858-12.736-.489-12.781-.544l1.562-1.25c.139.169 3.6 4.208 10.689-.223a1 1 0 0 1 1.06 0c7.163 4.477 10.655.267 10.689.223l1.562 1.25a8.223 8.223 0 0 1 -6.152 2.583z"/><path d="m21 41h2v2h-2z"/><path d="m23 45h2v2h-2z"/><path d="m16 43h2v2h-2z"/><path d="m41 41h2v2h-2z"/><path d="m39 45h2v2h-2z"/><path d="m46 43h2v2h-2z"/></g><path d="m17 23c0 1.1 1.343 1 3 1a3.428 3.428 0 0 0 3-3c0-1.105-1.343-1-3-1a3.427 3.427 0 0 0 -3 3z" fill="#394d5c"/><path d="m47 23c0 1.1-1.343 1-3 1a3.428 3.428 0 0 1 -3-3c0-1.105 1.343-1 3-1a3.427 3.427 0 0 1 3 3z" fill="#394d5c"/><path d="m30.429 38.746a1 1 0 0 0 -1.2 1.607 2.459 2.459 0 0 1 .763.767 2.657 2.657 0 0 1 -1.308.687 1.007 1.007 0 0 0 -.7 1.124 1.006 1.006 0 0 0 1.29.791c1.076-.327 2.443-.98 2.678-2.218.229-1.179-.702-2.142-1.523-2.758z" fill="#143441"/><path d="m35.3 41.807a2.95 2.95 0 0 1 -1.3-.646s.063-.282.748-.8a1.009 1.009 0 0 0 .266-1.322 1 1 0 0 0 -1.453-.294c-.82.616-1.751 1.579-1.527 2.761.235 1.237 1.6 1.891 2.677 2.218a1 1 0 0 0 1.289-.792 1 1 0 0 0 -.7-1.125z" fill="#143441"/></g></svg>