<svg height="512" viewBox="0 0 64 64" width="512" xmlns="http://www.w3.org/2000/svg"><g id="flat"><path d="m53 36-2-6v-7l-11-11s-6-1-8-1-8 1-8 1l-11 11v7l-2 6 21 12z" fill="#394d5c"/><path d="m18 47 4 5c.788 1.1 1.645 2 3 2a4.7 4.7 0 0 0 4-3 3.5 3.5 0 0 1 6 0 4.7 4.7 0 0 0 4 3c1.355 0 2.212-.9 3-2l4-5 4-4 3-7s-5 1-8 0-6-4-13-4-10 3-13 4-8 0-8 0l3 7z" fill="#d3843d"/><g fill="#143441"><path d="m24 12a12.281 12.281 0 0 0 -9-2c-5 1-3 3-9 5-4.243 1.414-3 4-1 9s3 8 5 3l3-4z"/><path d="m40 12a12.281 12.281 0 0 1 9-2c5 1 3 3 9 5 4.243 1.414 3 4 1 9s-3 8-5 3l-3-4z"/><path d="m33 43.526v-3.7a4.541 4.541 0 0 0 3-3.826c0-1.657-1.791-2-4-2s-4 .343-4 2a4.541 4.541 0 0 0 3 3.822v3.662a24.831 24.831 0 0 1 -8.2 3.536l.393 1.96a26.42 26.42 0 0 0 8.778-3.73c1.1.774 3.672 2.26 8.751 3.711l.55-1.922c-5.193-1.485-7.522-2.959-8.272-3.513z"/></g><path d="m25 23c0 1.105-1.343 1-3 1a3.427 3.427 0 0 1 -3-3c0-1.1 1.343-1 3-1a3.428 3.428 0 0 1 3 3z" fill="#f9bb4b"/><path d="m39 23c0 1.105 1.343 1 3 1a3.427 3.427 0 0 0 3-3c0-1.1-1.343-1-3-1a3.428 3.428 0 0 0 -3 3z" fill="#f9bb4b"/><path d="m23 31a2 2 0 1 1 2-2 2 2 0 0 1 -2 2z" fill="#143441"/><path d="m41 31a2 2 0 1 1 2-2 2 2 0 0 1 -2 2z" fill="#143441"/><path d="m18.926 49.058c-.126-2.362-.111-8.066 2.625-11.081a.987.987 0 0 1 1.509.1l.007.009a.988.988 0 0 1 -.058 1.256c-2.025 2.26-2.232 7.021-2.089 9.615a.993.993 0 0 1 -.887 1.043 1 1 0 0 1 -1.107-.942z" fill="#66342e"/><path d="m43.967 50a.993.993 0 0 1 -.887-1.037c.143-2.594-.064-7.355-2.089-9.615a.988.988 0 0 1 -.058-1.256l.007-.009a.987.987 0 0 1 1.509-.1c2.736 3.015 2.751 8.719 2.625 11.081a1 1 0 0 1 -1.107.936z" fill="#66342e"/><path d="m36.375 30.781c-4.326-3.46-8.571-.143-8.75 0l-1.25-1.562a9.023 9.023 0 0 1 11.25 0z" fill="#143441"/></g></svg>