<svg height="512" viewBox="0 0 64 64" width="512" xmlns="http://www.w3.org/2000/svg"><g id="flat"><path d="m41 51 2 5c6-2 3.122-14.818 3-15 1.118-1.118 6 2 6 2a27.96 27.96 0 0 0 -5-8c.844-1.265 6 1 6 1l-5-6h5l-9-14a35.412 35.412 0 0 0 -12-2 35.412 35.412 0 0 0 -12 2l-9 14h5l-5 6s5.156-2.265 6-1a27.96 27.96 0 0 0 -5 8s4.882-3.118 6-2c-.122.182-3 12 3 15l2-5z" fill="#5a6470"/><path d="m44 37-3-5 5-5-5-7-7-1v7a2 2 0 0 1 -4 0v-7l-7 1-5 7 5 5-3 5 4 4-1 10a29.142 29.142 0 0 0 9 10 29.142 29.142 0 0 0 9-10l-1-10z" fill="#f4f4e6"/><path d="m32 41a4 4 0 0 1 -4 4v3a4 4 0 0 0 8 0v-3a4 4 0 0 1 -4-4z" fill="#f98c96"/><path d="m36 35c0 1.657-2.343 4-4 4s-4-2.343-4-4 2.343-2 4-2 4 .343 4 2z" fill="#143441"/><path d="m31 43h2v6h-2z" fill="#db527d"/><g fill="#143441"><path d="m25 30a2 2 0 1 1 2-2 2 2 0 0 1 -2 2z"/><path d="m39 30a2 2 0 1 1 2-2 2 2 0 0 1 -2 2z"/><path d="m36 46a5 5 0 0 1 -4-2 5 5 0 0 1 -8.842-1.749 1 1 0 0 1 .97-1.251 1.029 1.029 0 0 1 .976.8 3.084 3.084 0 0 0 4.945 1.5 2.615 2.615 0 0 0 .951-2.277 1 1 0 1 1 2 0 2.615 2.615 0 0 0 .948 2.275 3.084 3.084 0 0 0 4.945-1.5 1.029 1.029 0 0 1 .976-.8 1 1 0 0 1 .97 1.248 5.008 5.008 0 0 1 -4.839 3.754z"/></g><path d="m20 16-7-13s-9.4 13.514-.4 24.514z" fill="#394d5c"/><path d="m18.071 19-5.071-9s-3.431 8.448 1.569 14.448z" fill="#f4f4e6"/><path d="m44 16 7-13s9.4 13.514.4 24.514z" fill="#394d5c"/><path d="m45.929 19 5.071-9s3.431 8.448-1.569 14.448z" fill="#f4f4e6"/></g></svg>