<svg height="512" viewBox="0 0 64 64" width="512" xmlns="http://www.w3.org/2000/svg"><g id="flat"><path d="m10 21s-4.694-11.265-2-18c0 0 4 1 10 9z" fill="#66342e"/><path d="m12.5 8.095h2v7.81h-2z" fill="#f9bb4b" transform="matrix(.768 -.64 .64 .768 -4.553 11.424)"/><path d="m19 27v33s-6-3.959-6-8c0 0-2.653.959-4 5a14.4 14.4 0 0 1 1-13c4.041-6.735-1.347-18.959 0-23l8-9h10a3.971 3.971 0 0 1 4 4v3z" fill="#ad6327"/><path d="m54 21s4.694-11.265 2-18c0 0-4 1-10 9z" fill="#66342e"/><path d="m46.595 11h7.81v2h-7.81z" fill="#f9bb4b" transform="matrix(.641 -.768 .768 .641 8.938 43.095)"/><path d="m45 27v33s6-3.959 6-8c0 0 2.653.959 4 5a14.4 14.4 0 0 0 -1-13c-4.041-6.735 1.347-18.959 0-23l-8-9h-10a3.971 3.971 0 0 0 -4 4v3z" fill="#a05924"/><path d="m27 19a8 8 0 0 0 -8 8v20c0 11 6 10.148 6 14l3-8 4 7 4-7 3 8c0-3.852 6-3 6-14v-20a8 8 0 0 0 -8-8z" fill="#d3843d"/><path d="m32 48a4 4 0 0 0 4-4v-1c-2.761 0-4-1.343-4-3 0 1.657-1.239 3-4 3v1a4 4 0 0 0 4 4z" fill="#f98c96"/><path d="m31 41h2v4h-2z" fill="#db527d"/><g fill="#143441"><path d="m40 40c0 .944-1.71 2-4 2-1.121 0-3-.26-3-2h-2c0 1.74-1.879 2-3 2-2.29 0-4-1.056-4-2h-2c0 2.243 2.636 4 6 4a5.2 5.2 0 0 0 4-1.449 5.2 5.2 0 0 0 4 1.449c3.364 0 6-1.757 6-4z"/><path d="m36 35a4.406 4.406 0 0 1 -4 4 4.406 4.406 0 0 1 -4-4c0-1.657 1.791-2 4-2s4 .343 4 2z"/><circle cx="37" cy="29" r="2"/></g><path d="m44.908 38a1.011 1.011 0 0 1 -.984-.848c-.461-2.478-2.905-3.548-4.234-3.953a1 1 0 0 1 -.7-1.124v-.006a1 1 0 0 1 1.288-.791c2.182.664 5.064 2.355 5.627 5.571a1 1 0 0 1 -.997 1.151z" fill="#ffd782"/><circle cx="27" cy="29" fill="#143441" r="2"/><path d="m19.092 38a1 1 0 0 1 -.994-1.151c.563-3.216 3.444-4.907 5.626-5.571a1 1 0 0 1 1.288.792l.153.916-.165-.986.167.986c-.2.034-4.466.806-5.091 4.166a1.011 1.011 0 0 1 -.984.848z" fill="#ffd782"/></g></svg>