<svg width="67" height="94" fill="none" xmlns="http://www.w3.org/2000/svg">
  <path d="M33.691.15C15.458.15.625 14.985.625 33.22c0 17.64 30.23 57.831 31.518 59.535.362.487.942.77 1.548.77.607 0 1.187-.284 1.549-.77 1.287-1.704 31.518-41.894 31.518-59.534C66.758 14.985 51.924.15 33.69.15zm0 50.578c-9.651 0-17.505-7.855-17.505-17.507 0-9.653 7.854-17.508 17.505-17.508 9.652 0 17.506 7.855 17.506 17.508 0 9.652-7.854 17.508-17.506 17.508z" fill="url(#paint0_linear)" />
  <defs>
    <linearGradient id="paint0_linear" x1="-11.723" y1=".15" x2="83.036" y2="20.523" gradientUnits="userSpaceOnUse">
      <stop stop-color="#4BD8B5" />
      <stop offset="1" stop-color="#49D6DF" />
    </linearGradient>
  </defs>
</svg>