<svg width="18" height="18" viewBox="0 0 512 512" xmlns="http://www.w3.org/2000/svg"><path d="M453.332 0H58.668C26.305 0 0 26.305 0 58.668v394.664C0 485.695 26.305 512 58.668 512h394.664C485.695 512 512 485.695 512 453.332V58.668C512 26.305 485.695 0 453.332 0zm0 0" fill="#f44336"/><path d="M350.273 320.105c8.34 8.344 8.34 21.848 0 30.168a21.275 21.275 0 01-15.086 6.25c-5.46 0-10.921-2.09-15.082-6.25L256 286.164l-64.105 64.11a21.273 21.273 0 01-15.083 6.25 21.275 21.275 0 01-15.085-6.25c-8.34-8.32-8.34-21.825 0-30.169L225.836 256l-64.11-64.105c-8.34-8.344-8.34-21.848 0-30.168 8.344-8.34 21.825-8.34 30.169 0L256 225.836l64.105-64.11c8.344-8.34 21.825-8.34 30.168 0 8.34 8.32 8.34 21.825 0 30.169L286.164 256zm0 0" fill="#fafafa"/></svg>