<svg width="20" height="20" fill="none" xmlns="http://www.w3.org/2000/svg"><path d="M9.99 0C4.47 0 0 4.48 0 10s4.47 10 9.99 10C15.52 20 20 15.52 20 10S15.52 0 9.99 0zm4.24 16L10 13.45 5.77 16l1.12-4.81-3.73-3.23 4.92-.42L10 3l1.92 4.53 4.92.42-3.73 3.23L14.23 16z" fill="#fff" fill-opacity=".7"/><circle cx="10" cy="10" r="10" fill="#fff"/><path fill-rule="evenodd" clip-rule="evenodd" d="M14.749 10.624c.024-.2.04-.408.04-.624 0-.216-.016-.424-.048-.624l1.352-1.056a.33.33 0 00.08-.408l-1.28-2.216a.325.325 0 00-.392-.144l-1.592.64a4.687 4.687 0 00-1.08-.624l-.24-1.696a.32.32 0 00-.32-.272h-2.56a.311.311 0 00-.312.272l-.24 1.696c-.392.16-.752.376-1.08.624l-1.592-.64a.316.316 0 00-.392.144l-1.28 2.216a.31.31 0 00.08.408l1.352 1.056c-.032.2-.056.416-.056.624 0 .208.016.424.048.624L3.885 11.68a.33.33 0 00-.08.408l1.28 2.216c.08.144.248.192.392.144l1.592-.64c.336.256.688.464 1.08.624l.24 1.696c.032.16.16.272.32.272h2.56c.16 0 .296-.112.312-.272l.24-1.696c.392-.16.752-.376 1.08-.624l1.592.64c.144.056.312 0 .392-.144l1.28-2.216a.31.31 0 00-.08-.408l-1.336-1.056zM9.989 12.4c-1.32 0-2.4-1.08-2.4-2.4 0-1.32 1.08-2.4 2.4-2.4 1.32 0 2.4 1.08 2.4 2.4 0 1.32-1.08 2.4-2.4 2.4z" fill="#2196F3"/></svg>