<svg height="512" viewBox="0 0 64 64" width="512" xmlns="http://www.w3.org/2000/svg"><g id="flat"><path d="m32 41-5 7v1a5 5 0 0 0 10 0v-1z" fill="#dd3e46"/><path d="m32 51a1 1 0 0 1 -1-1v-10.662h2v10.662a1 1 0 0 1 -1 1z" fill="#b11e48"/><path d="m36 10h-8l-9 3v22l3 10c.605 1.967 2.125 3 5 3a3.777 3.777 0 0 0 4-3l1-4 1 4a3.777 3.777 0 0 0 4 3c2.875 0 4.4-1.033 5-3l3-10v-22z" fill="#ceac9a"/><path d="m19 13s-5-3-9-3l1 3-7 7c-4 4 5 13.666 5 19 0 7.168 10 11.669 10-4z" fill="#995f5b"/><path d="m8.051 26.316-1-3a1 1 0 0 1 .5-1.211l2.759-1.379-1.017-1.019a1 1 0 0 1 .152-1.539l3-2 1.11 1.664-1.985 1.323 1.137 1.138a1 1 0 0 1 -.26 1.6l-3.224 1.613.726 2.178z" fill="#66342e"/><path d="m45 13s5-3 9-3l-1 3 7 7c4 4-5 13.666-5 19 0 7.168-10 11.669-10-4z" fill="#995f5b"/><path d="m55.949 26.316-1.9-.632.726-2.178-3.222-1.606a1 1 0 0 1 -.26-1.6l1.137-1.138-1.985-1.323 1.11-1.664 3 2a1 1 0 0 1 .152 1.539l-1.019 1.019 2.759 1.379a1 1 0 0 1 .5 1.211z" fill="#66342e"/><path d="m36 36c0 1.657-2.343 5-4 5s-4-3.343-4-5 2.343-2 4-2 4 .343 4 2z" fill="#143441"/><path d="m27.512 32.192-1.027-1.716c.225-.136 5.577-3.271 11.03 0l-1.03 1.715a9.184 9.184 0 0 0 -8.973.001z" fill="#995f5b"/><g fill="#143441"><path d="m25 28a2 2 0 1 1 2-2 2 2 0 0 1 -2 2z"/><path d="m39 28a2 2 0 1 1 2-2 2 2 0 0 1 -2 2z"/></g></g></svg>