<svg height="512" viewBox="0 0 64 64" width="512" xmlns="http://www.w3.org/2000/svg"><g id="flat"><path d="m56 43s-3-6-6-9v-12l-7-11a61 61 0 0 0 -22 0l-7 11v12c-3 3-6 9-6 9l6-2s-4 7-4 10l5-2c1.531 9.624 4 9 6 12v-10h22v10c3-4 4.469-2.376 6-12l5 2c0-3-4-10-4-10z" fill="#5a6470"/><path d="m46 42c-1-3-5-5-5-5l1-3-10 2-10-2 1 3s-4 2-5 5l4-1s-4 11-1 20l5-10 6 9 6-9 5 10c3-9-1-20-1-20z" fill="#e8e7d6"/><path d="m21 11s-2-8-5-8-3 4-6 6-6 2-3 7 0 10 0 11 7-5 7-5" fill="#394d5c"/><path d="m12.966 20.987a1 1 0 0 1 -.58-1.234 33.111 33.111 0 0 0 1.6-8.8.993.993 0 0 1 1-.947 1.006 1.006 0 0 1 1 1.051 34.6 34.6 0 0 1 -1.7 9.329 1 1 0 0 1 -1.32.601z" fill="#143441"/><path d="m28 23a6.233 6.233 0 0 0 -4-2v2l-4-1a10.3 10.3 0 0 0 -2 5h12a11.087 11.087 0 0 0 -2-4z" fill="#f4f4e6"/><circle cx="26" cy="30" fill="#143441" r="2"/><path d="m43 11s2-8 5-8 3 4 6 6 6 2 3 7 0 10 0 11-7-5-7-5z" fill="#394d5c"/><path d="m49.717 20.38a34.622 34.622 0 0 1 -1.7-9.329 1.006 1.006 0 0 1 1-1.051.994.994 0 0 1 1 .948 32.868 32.868 0 0 0 1.6 8.8 1 1 0 0 1 -.581 1.235 1 1 0 0 1 -1.319-.603z" fill="#143441"/><path d="m36 23a6.233 6.233 0 0 1 4-2v2l4-1a10.3 10.3 0 0 1 2 5h-12a11.087 11.087 0 0 1 2-4z" fill="#f4f4e6"/><circle cx="38" cy="30" fill="#143441" r="2"/><path d="m40 46c-6.028 0-7.053-2.323-7.063-2.347h-1.875c-.009.024-1.034 2.347-7.062 2.347v2c4.637 0 6.909-1.262 8-2.316 1.091 1.054 3.363 2.316 8 2.316z" fill="#143441"/><path d="m36 40c0 1.449-1.827 4-4 4s-4-2.551-4-4 1.827-2 4-2 4 .551 4 2z" fill="#394d5c"/></g></svg>