<svg height="512" viewBox="0 0 64 64" width="512" xmlns="http://www.w3.org/2000/svg"><g id="flat"><path d="m16 20s-9.679 1.76-11.7 13.534a2.989 2.989 0 0 0 2.719 5.276c-.006.064-.019.125-.019.19a1.994 1.994 0 0 0 3.745.959 2.988 2.988 0 1 0 4.476-3.959h.779z" fill="#ad6327"/><path d="m48 36h.779a2.988 2.988 0 1 0 4.476 3.959 1.994 1.994 0 0 0 3.745-.959c0-.065-.013-.126-.019-.19a2.969 2.969 0 0 0 1.019.19 3 3 0 0 0 1.7-5.466c-2.021-11.774-11.7-13.534-11.7-13.534z" fill="#ad6327"/><path d="m13.98 34.2-1.96-.4c1.068-5.345 4.289-7.545 4.425-7.636l1.11 1.664-.555-.828.56.829c-.109.071-2.682 1.879-3.58 6.371z" fill="#66342e"/><path d="m50.02 34.2c-.9-4.488-3.471-6.293-3.58-6.367l1.115-1.661c.136.091 3.357 2.291 4.425 7.636z" fill="#66342e"/><path d="m45 17c-.05 0-.1.012-.146.015a3.956 3.956 0 0 0 .146-1.015 4 4 0 0 0 -6.239-3.315 3.967 3.967 0 0 0 -6.761-1.305 3.967 3.967 0 0 0 -6.761 1.3 3.972 3.972 0 0 0 -6.093 4.33c-.049 0-.1-.015-.146-.015a3 3 0 0 0 -3 3v28.005a2.994 2.994 0 0 0 5.163 2.07 3.973 3.973 0 0 0 7.037 1.313 2.952 2.952 0 0 0 3.8-.162 2.952 2.952 0 0 0 3.8.162 3.973 3.973 0 0 0 7.033-1.313 2.994 2.994 0 0 0 5.167-2.07v-28a3 3 0 0 0 -3-3z" fill="#d3843d"/><path d="m45 41h-2a2.016 2.016 0 0 0 -2.744-1.852 1 1 0 0 1 -1.337-.667 2 2 0 0 0 -1.919-1.481 1.971 1.971 0 0 0 -1.46.647 1 1 0 0 1 -1.672-.335 1.986 1.986 0 0 0 -3.736 0 1 1 0 0 1 -1.672.335 1.971 1.971 0 0 0 -1.46-.647 2 2 0 0 0 -1.919 1.481 1 1 0 0 1 -1.337.667 2.016 2.016 0 0 0 -2.744 1.852h-2a4 4 0 0 1 4-4 3.882 3.882 0 0 1 .528.036 4 4 0 0 1 3.472-2.036 3.946 3.946 0 0 1 1.9.484 3.974 3.974 0 0 1 6.194 0 3.946 3.946 0 0 1 1.906-.484 4 4 0 0 1 3.472 2.036 3.882 3.882 0 0 1 .528-.036 4 4 0 0 1 4 4z" fill="#66342e"/><path d="m32 51a1 1 0 0 1 -1-1v-5h2v5a1 1 0 0 1 -1 1z" fill="#66342e"/><path d="m26 33a2 2 0 1 1 2-2 2 2 0 0 1 -2 2z" fill="#143441"/><path d="m38 33a2 2 0 1 1 2-2 2 2 0 0 1 -2 2z" fill="#143441"/><g fill="#66342e"><path d="m28 22h-2a1 1 0 0 0 -2 0h-2a3 3 0 0 1 6 0z"/><path d="m33 17h-2a1 1 0 0 0 -2 0h-2a3 3 0 0 1 6 0z"/><path d="m42 21h-2a1 1 0 0 0 -2 0h-2a3 3 0 0 1 6 0z"/></g><path d="m36 42a4.406 4.406 0 0 1 -4 4 4.406 4.406 0 0 1 -4-4c0-1.657 1.791-2 4-2s4 .343 4 2z" fill="#143441"/></g></svg>