<svg height="512" viewBox="0 0 64 64" width="512" xmlns="http://www.w3.org/2000/svg"><g id="flat"><path d="m34 30v-17h14l1 23c.134 2.492-.758 4.073-3 5l-3 1.44z" fill="#ad6327"/><path d="m30 13h-14l-1 23c-.134 2.492.758 4.073 3 5l3 1.44 9-12.44z" fill="#ad6327"/><path d="m32.307 43h-.614l-5.693 3v4a6 6 0 0 0 6 6 6 6 0 0 0 6-6v-4z" fill="#f98c96"/><path d="m32 53a1 1 0 0 1 -1-1v-11h2v11a1 1 0 0 1 -1 1z" fill="#db527d"/><path d="m34 13h-4l-9 21v9c0 1.588 1.824 4 5 4s6-2.412 6-4c0 1.588 2.824 4 6 4s5-2.412 5-4v-9z" fill="#e8e7d6"/><path d="m16 13s-7.433-6.237-8 0c-1 11-7.929 14.714-4 19 2.75 3 3 10.708 8 5l3.1-3.375z" fill="#301a12"/><g fill="#394d5c"><path d="m43 34 1-21h-10v17z"/><path d="m32 44a1 1 0 0 1 -1-1v-2h2v2a1 1 0 0 1 -1 1z"/><path d="m21 34 9-4v-17h-10z"/></g><path d="m25 27a2 2 0 1 1 2-2 2 2 0 0 1 -2 2z" fill="#143441"/><path d="m48 13s7.433-6.237 8 0c1 11 7.929 14.714 4 19-2.75 3-3 10.708-8 5l-3.1-3.375z" fill="#301a12"/><path d="m39 27a2 2 0 1 1 2-2 2 2 0 0 1 -2 2z" fill="#143441"/><path d="m37 37c0 1.927-3.073 5-5 5s-5-3.073-5-5 3.073-3 5-3 5 1.073 5 3z" fill="#143441"/></g></svg>