<svg height="512" viewBox="0 0 64 64" width="512" xmlns="http://www.w3.org/2000/svg"><g id="flat"><path d="m15.25 46.52a5.269 5.269 0 0 0 -1.25-2.52 11.011 11.011 0 0 1 -3-7v-10l8-13a88.676 88.676 0 0 1 13-1 88.676 88.676 0 0 1 13 1l8 13v10a11.011 11.011 0 0 1 -3 7 5.269 5.269 0 0 0 -1.25 2.52z" fill="#7d8d9c"/><path d="m48.75 46.52c-.06.27-.12.55-.17.84-.73 4.1-.45 8.71-16.58 5.64-16.13 3.07-15.85-1.54-16.58-5.64-.05-.29-.11-.57-.17-.84 2.76-13.52 16.75-13.52 16.75-13.52s13.99 0 16.75 13.52z" fill="#aabece"/><path d="m19 14s-3.965-4-7-4-8.116 6.725-9 10c-.844 3.125 8 7 8 7h4z" fill="#aabece"/><circle cx="25" cy="29" fill="#143441" r="2"/><path d="m13.043 43h-.006a1 1 0 0 1 -1-1.058 13.475 13.475 0 0 1 1.484-5.651 1 1 0 0 1 1.571-.2 1.007 1.007 0 0 1 .131 1.243 11.879 11.879 0 0 0 -1.188 4.738.994.994 0 0 1 -.992.928z" fill="#394d5c"/><path d="m11.078 34.054a1 1 0 0 1 -.19-1.5 7.823 7.823 0 0 1 3.87-2.414 1.008 1.008 0 0 1 1.242.974 1.018 1.018 0 0 1 -.815.979 5.864 5.864 0 0 0 -2.825 1.812.99.99 0 0 1 -1.282.149z" fill="#394d5c"/><path d="m19.447 29.9-.894-1.789.447.889-.45-.893a6.51 6.51 0 0 0 2.555-2.554c1.125-2.253 2.451-3.553 5.895-3.553v2c-2.6 0-3.273.784-4.105 2.448a8.474 8.474 0 0 1 -3.448 3.452z" fill="#394d5c"/><path d="m45 14s3.965-4 7-4 8.116 6.725 9 10c.844 3.125-8 7-8 7h-4z" fill="#aabece"/><circle cx="39" cy="29" fill="#143441" r="2"/><path d="m49.962 42.077a11.879 11.879 0 0 0 -1.188-4.738 1.007 1.007 0 0 1 .131-1.243 1 1 0 0 1 1.571.2 13.475 13.475 0 0 1 1.484 5.651 1 1 0 0 1 -1 1.058h-.006a.994.994 0 0 1 -.992-.928z" fill="#394d5c"/><path d="m51.64 33.908a5.864 5.864 0 0 0 -2.825-1.808 1.018 1.018 0 0 1 -.815-.983 1.008 1.008 0 0 1 1.246-.972 7.823 7.823 0 0 1 3.87 2.414 1 1 0 0 1 -.19 1.5.99.99 0 0 1 -1.286-.151z" fill="#394d5c"/><path d="m44.553 29.9a8.474 8.474 0 0 1 -3.448-3.447c-.832-1.669-1.505-2.453-4.105-2.453v-2c3.444 0 4.77 1.3 5.9 3.553a6.535 6.535 0 0 0 2.552 2.553z" fill="#394d5c"/><path d="m32 21a16.089 16.089 0 0 1 -4.316-1.051 4.017 4.017 0 0 0 -3.983.764l-1.408-1.42a6.008 6.008 0 0 1 6.023-1.241 16.464 16.464 0 0 0 3.7.948 17.179 17.179 0 0 0 3.665-.948 6.011 6.011 0 0 1 6.023 1.241l-1.404 1.42a4.012 4.012 0 0 0 -3.983-.764 16.089 16.089 0 0 1 -4.317 1.051z" fill="#394d5c"/><path d="m38.444 51.381c-2.265 0-4.384-1.98-6.444-6.032-2.113 4.158-4.3 6.139-6.622 6.027-3.921-.177-6.092-6.355-6.326-7.059l1.9-.633c.485 1.446 2.356 5.6 4.522 5.7.973.049 2.991-.783 5.614-6.779a1 1 0 0 1 1.832 0c2.623 5.995 4.6 6.823 5.614 6.779 2.166-.1 4.037-4.249 4.522-5.695l1.9.633c-.234.7-2.405 6.882-6.326 7.059-.068-.002-.13 0-.186 0z" fill="#143441"/><g fill="#394d5c"><path d="m36 39a4.406 4.406 0 0 1 -4 4 4.406 4.406 0 0 1 -4-4c0-1.656 1.791-2 4-2s4 .344 4 2z"/><path d="m22 40h2v2h-2z"/><path d="m25 44h2v2h-2z"/><path d="m37 43h2v2h-2z"/><path d="m40 40h2v2h-2z"/></g></g></svg>